HIERARCHY
ROOT Hips
{
	OFFSET -0.001795 -0.223333 0.028219
	CHANNELS 6 Xposition Yposition Zposition Zrotation Yrotation Xrotation 
	JOINT LeftUpLeg
	{
		OFFSET 0.069520 -0.091406 -0.006815
		CHANNELS 3 Zrotation Yrotation Xrotation
		JOINT LeftLeg
		{
			OFFSET 0.034277 -0.375199 -0.004496
			CHANNELS 3 Zrotation Yrotation Xrotation
			JOINT LeftFoot
			{
				OFFSET -0.013596 -0.397961 -0.043693
				CHANNELS 3 Zrotation Yrotation Xrotation
				JOINT LeftToe
				{
					OFFSET 0.026358 -0.055791 0.119288
					CHANNELS 3 Zrotation Yrotation Xrotation
					End Site
					{
						OFFSET 0.000000 0.000000 0.000000
					}
				}
			}
		}
	}
	JOINT RightUpLeg
	{
		OFFSET -0.067670 -0.090522 -0.004320
		CHANNELS 3 Zrotation Yrotation Xrotation
		JOINT RightLeg
		{
			OFFSET -0.038290 -0.382569 -0.008850
			CHANNELS 3 Zrotation Yrotation Xrotation
			JOINT RightFoot
			{
				OFFSET 0.015774 -0.398415 -0.042312
				CHANNELS 3 Zrotation Yrotation Xrotation
				JOINT RightToe
				{
					OFFSET -0.025372 -0.048144 0.123348
					CHANNELS 3 Zrotation Yrotation Xrotation
					End Site
					{
						OFFSET 0.000000 0.000000 0.000000
					}
				}
			}
		}
	}
	JOINT Spine
	{
		OFFSET -0.002533 0.108963 -0.026696
		CHANNELS 3 Zrotation Yrotation Xrotation
		JOINT Spine1
		{
			OFFSET 0.005487 0.135180 0.001092
			CHANNELS 3 Zrotation Yrotation Xrotation
			JOINT Spine2
			{
				OFFSET 0.001457 0.052922 0.025425
				CHANNELS 3 Zrotation Yrotation Xrotation
				JOINT Neck
				{
					OFFSET -0.002778 0.213870 -0.042857
					CHANNELS 3 Zrotation Yrotation Xrotation
					JOINT Head
					{
						OFFSET 0.005152 0.064970 0.051349
						CHANNELS 3 Zrotation Yrotation Xrotation
						End Site
						{
							OFFSET 0.000000 0.000000 0.000000
						}
					}
				}
				JOINT LeftShoulder
				{
					OFFSET 0.078845 0.121749 -0.034090
					CHANNELS 3 Zrotation Yrotation Xrotation
					JOINT LeftArm
					{
						OFFSET 0.090977 0.030469 -0.008868
						CHANNELS 3 Zrotation Yrotation Xrotation
						JOINT LeftForeArm
						{
							OFFSET 0.259612 -0.012772 -0.027456
							CHANNELS 3 Zrotation Yrotation Xrotation
							JOINT LeftHand
							{
								OFFSET 0.249234 0.008986 -0.001171
								CHANNELS 3 Zrotation Yrotation Xrotation
								End Site
								{
									OFFSET 0.000000 0.000000 0.000000
								}
							}
						}
					}
				}
				JOINT RightShoulder
				{
					OFFSET -0.081759 0.118833 -0.038615
					CHANNELS 3 Zrotation Yrotation Xrotation
					JOINT RightArm
					{
						OFFSET -0.096012 0.032551 -0.009143
						CHANNELS 3 Zrotation Yrotation Xrotation
						JOINT RightForeArm
						{
							OFFSET -0.253742 -0.013329 -0.021401
							CHANNELS 3 Zrotation Yrotation Xrotation
							JOINT RightHand
							{
								OFFSET -0.255298 0.007772 -0.005559
								CHANNELS 3 Zrotation Yrotation Xrotation
								End Site
								{
									OFFSET 0.000000 0.000000 0.000000
								}
							}
						}
					}
				}
			}
		}
	}
}
MOTION
Frames: 12
Frame Time: 0.050000
-0.023908 0.943096 -0.045472 -3.292679 20.614955 3.945060 4.534161 -0.461802 -4.076674 3.863392 -0.069319 -3.756857 -2.072452 2.006688 8.869870 0.000000 0.000000 0.000000 0.927015 0.934345 -9.364893 -1.444717 0.337759 4.878302 -0.115514 -1.197671 5.299517 0.000000 0.000000 0.000000 -1.592395 0.018947 0.062865 -0.349828 0.354834 -2.698043 1.943145 0.559892 3.863891 1.438111 0.905779 -12.230093 0.000000 0.000000 0.000000 -18.019006 0.144404 -4.453032 -38.206068 1.302684 -4.098237 -86.549266 -56.280244 52.150092 0.000000 0.000000 0.000000 17.751944 4.051575 3.246357 28.960373 12.472901 -1.070355 149.044499 68.766537 147.405333 0.000000 0.000000 0.000000 
-0.023459 0.942912 -0.042241 -3.279508 20.911453 4.433897 4.607218 -0.480344 -4.261913 3.728657 -0.042980 -4.102992 -1.954761 2.476167 9.289393 0.000000 0.000000 0.000000 0.870073 0.932059 -9.412595 -1.192886 0.283771 4.502940 -0.318975 -1.619308 5.186674 0.000000 0.000000 0.000000 -1.645979 0.030917 -0.386254 -0.363248 0.363585 -2.748472 1.654197 0.252329 3.646075 1.549522 0.783685 -11.947718 0.000000 0.000000 0.000000 -17.567456 -0.745891 -3.896362 -38.775387 0.401919 -3.900303 -85.278539 -56.832192 51.659303 0.000000 0.000000 0.000000 17.123566 4.092618 3.184455 28.223257 12.255323 -1.085523 144.882715 68.947371 141.686269 0.000000 0.000000 0.000000 
-0.022836 0.942929 -0.039383 -3.411938 21.077913 4.688638 4.712727 -0.478367 -4.049136 3.705518 -0.007315 -4.794841 -1.879846 2.775823 9.571012 0.000000 0.000000 0.000000 1.106311 0.948912 -9.388346 -1.331352 0.301692 4.191459 -0.300178 -1.575927 5.299417 0.000000 0.000000 0.000000 -1.661385 0.035773 -0.579323 -0.394933 0.396574 -2.995413 1.808063 -0.325668 3.423968 1.274482 0.870185 -11.593053 0.000000 0.000000 0.000000 -17.922995 -1.202989 -3.648288 -39.200751 -0.174434 -3.776146 -84.520626 -56.862756 51.297847 0.000000 0.000000 0.000000 16.577325 4.436367 3.194255 26.986015 12.301228 -1.021603 138.798661 70.733021 134.465218 0.000000 0.000000 0.000000 
-0.022060 0.942882 -0.037146 -3.405445 21.066406 5.068310 4.724555 -0.486497 -4.131064 3.708729 0.001845 -4.981335 -1.574848 3.218199 9.468638 0.000000 0.000000 0.000000 1.149792 0.953360 -9.398565 -1.276253 0.282534 3.727440 -0.387533 -1.744178 5.103729 0.000000 0.000000 0.000000 -1.690625 0.043564 -0.909399 -0.307455 0.369873 -3.157346 1.597558 -0.333978 3.239747 1.098672 0.954936 -11.372896 0.000000 0.000000 0.000000 -17.785686 -1.663543 -3.409326 -39.978996 -0.604850 -3.720590 -82.239415 -56.965325 49.570145 0.000000 0.000000 0.000000 15.769853 4.918378 3.380933 25.629595 12.637322 -0.939854 134.701618 73.581029 131.503389 0.000000 0.000000 0.000000 
-0.021231 0.942758 -0.035589 -3.406091 20.700760 5.307759 4.687285 -0.480249 -4.036618 3.768696 0.011902 -5.252915 -1.376509 3.616280 9.659690 0.000000 0.000000 0.000000 1.138666 0.960965 -9.483823 -1.339978 0.286054 3.353384 -0.330099 -1.662991 5.307484 0.000000 0.000000 0.000000 -1.465433 0.047152 -1.130213 -0.490345 0.462502 -3.380569 1.622920 -0.098417 3.030680 1.321760 0.791461 -11.217269 0.000000 0.000000 0.000000 -17.779304 -1.776699 -3.369374 -40.554514 -0.466854 -3.811622 -81.195977 -56.755201 48.528697 0.000000 0.000000 0.000000 14.828637 5.315357 3.496447 23.784172 14.133745 -0.682962 129.635921 77.127593 128.291022 0.000000 0.000000 0.000000 
-0.020466 0.942601 -0.034543 -3.349570 20.223234 5.566487 4.435952 -0.472041 -4.112842 3.927286 0.001210 -5.165331 -1.042565 3.989077 9.416792 0.000000 0.000000 0.000000 1.149256 0.964506 -9.484906 -1.587186 0.322654 3.135238 -0.344079 -1.657492 4.852897 0.000000 0.000000 0.000000 -1.271203 0.055739 -1.596518 -0.767533 0.553143 -3.069359 1.680116 0.333128 2.576189 1.185862 0.758065 -10.314799 0.000000 0.000000 0.000000 -17.705118 -1.848736 -3.349294 -41.164877 -0.104075 -3.964388 -79.115415 -56.462005 46.623375 0.000000 0.000000 0.000000 13.747508 6.291355 3.890910 22.207909 16.341234 -0.335636 120.786389 81.063483 121.666265 0.000000 0.000000 0.000000 
-0.019981 0.942449 -0.033944 -3.267937 19.817389 5.746397 4.286463 -0.462234 -4.062249 4.060588 0.005790 -5.373748 -0.876436 4.258709 9.478433 0.000000 0.000000 0.000000 1.189341 0.984682 -9.677146 -1.838928 0.363820 3.117022 -0.322363 -1.681983 5.182651 0.000000 0.000000 0.000000 -1.149209 0.062256 -1.934187 -1.009975 0.658150 -3.127681 1.840924 0.641914 2.523282 1.256048 0.657935 -9.906500 0.000000 0.000000 0.000000 -17.846433 -1.686193 -3.474272 -41.301466 0.318726 -4.106733 -76.477428 -56.196624 44.458620 0.000000 0.000000 0.000000 12.806848 7.339185 4.324551 20.636999 19.495553 0.065703 93.434413 84.526027 96.254766 0.000000 0.000000 0.000000 
-0.019854 0.942209 -0.033667 -3.025974 19.493844 5.872603 4.221797 -0.458797 -4.066022 3.983546 0.012548 -5.456241 -0.724599 4.580818 9.678795 0.000000 0.000000 0.000000 1.141812 0.984670 -9.705804 -2.059499 0.398814 3.086045 -0.251296 -1.523977 5.077041 0.000000 0.000000 0.000000 -1.196204 0.065604 -2.063625 -1.162034 0.703521 -2.874816 2.035712 1.106111 2.161723 1.264410 0.604444 -9.502541 0.000000 0.000000 0.000000 -17.929829 -1.565281 -3.610847 -41.541042 0.515769 -4.156000 -73.664128 -55.856273 42.078035 0.000000 0.000000 0.000000 12.025976 8.432145 4.804620 19.556702 22.824276 0.473541 40.993775 84.169659 45.002910 0.000000 0.000000 0.000000 
-0.020071 0.942396 -0.033824 -3.069121 19.676642 5.767860 4.288858 -0.466684 -4.158525 4.035512 0.006583 -5.372339 -0.792104 4.456608 9.615182 0.000000 0.000000 0.000000 1.213109 0.980042 -9.587500 -2.242581 0.431121 3.171093 -0.163370 -1.335475 5.228841 0.000000 0.000000 0.000000 -1.183428 0.064664 -2.043029 -1.253970 0.738148 -2.785489 2.334075 1.327202 2.071581 1.573293 0.396845 -9.378208 0.000000 0.000000 0.000000 -17.760782 -1.615962 -3.605751 -41.824805 1.010563 -4.345435 -71.049537 -55.321198 39.738050 0.000000 0.000000 0.000000 11.664793 9.562642 5.363722 18.657830 25.719686 0.771865 14.191659 80.823946 19.205163 0.000000 0.000000 0.000000 
-0.020460 0.942592 -0.034331 -3.090268 20.029939 5.618667 4.350696 -0.475694 -4.261189 4.057666 0.004535 -5.335930 -1.117792 3.880895 9.468261 0.000000 0.000000 0.000000 1.158503 0.948639 -9.270588 -2.167373 0.409229 2.890231 -0.173404 -1.387382 5.564091 0.000000 0.000000 0.000000 -1.124088 0.063399 -2.047432 -1.249431 0.724266 -2.583391 2.456750 1.744738 2.106624 1.887023 0.253180 -9.540674 0.000000 0.000000 0.000000 -17.549762 -1.382583 -3.808501 -41.917675 0.988088 -4.327787 -68.759143 -54.621816 37.421590 0.000000 0.000000 0.000000 11.729861 10.636222 6.023239 18.147906 28.021874 0.990666 5.154434 76.639074 10.672532 0.000000 0.000000 0.000000 
-0.020846 0.942923 -0.034962 -2.913443 20.632360 5.779627 4.221070 -0.496640 -4.665777 4.010762 -0.004445 -5.086235 -1.413791 3.115010 8.871239 0.000000 0.000000 0.000000 0.922430 0.930371 -9.308098 -2.144259 0.401361 2.789202 -0.130794 -1.246717 5.570916 0.000000 0.000000 0.000000 -1.201835 0.065205 -2.203973 -1.285946 0.733657 -2.485994 2.600687 2.106606 2.229209 2.056666 0.163171 -9.397484 0.000000 0.000000 0.000000 -17.016004 -1.676139 -3.689584 -42.070240 1.114041 -4.378601 -66.717349 -54.081191 35.426269 0.000000 0.000000 0.000000 11.688064 11.272601 6.468398 18.433842 29.840305 1.264157 0.962365 73.033408 6.994699 0.000000 0.000000 0.000000 
-0.021078 0.943333 -0.035641 -2.922583 21.020491 5.816436 4.395439 -0.515481 -4.836174 3.994626 0.001733 -5.184137 -1.674344 2.826388 9.067012 0.000000 0.000000 0.000000 0.777761 0.916652 -9.304600 -1.960337 0.363737 2.553061 -0.327927 -1.741342 6.136208 0.000000 0.000000 0.000000 -1.171278 0.064631 -2.214421 -1.244882 0.705914 -2.346586 2.851063 2.388662 2.129725 2.268700 0.006971 -9.144422 0.000000 0.000000 0.000000 -16.743953 -1.364039 -3.861336 -41.693187 1.196492 -4.344378 -65.347617 -53.301802 33.847498 0.000000 0.000000 0.000000 11.678390 12.017651 6.923752 18.776444 31.393418 1.550683 -0.378536 69.468494 5.603807 0.000000 0.000000 0.000000 
